<svg id="Layer_1" data-name="Layer 1" xmlns="http://www.w3.org/2000/svg" viewBox="0 0 1089.89 259.49"><defs><style>.cls-1{fill:#fff;}</style></defs><title>logo</title><path class="cls-1" d="M161.82,127.65c22,4.9,34.27,26.93,34.27,44.88,0,29.65-20.94,54.95-56.3,54.95H62.27V40.07h71.81c31.82,0,51.95,19,51.95,49.5C186,104.26,180,120.58,161.82,127.65ZM133,117c15.23,0,23.12-12.24,23.12-26.38,0-15.23-9.52-24.21-25-24.21H91.37V117ZM91.37,141.8v59.29h47.06c17.41,0,27.47-14.41,27.47-28.83,0-13.87-10.34-30.46-28.29-30.46Z" transform="translate(-62.27 -31.36)"/><path class="cls-1" d="M242.33,31.36c10.34,0,18.5,7.62,18.5,17.68s-8.16,17.68-18.5,17.68c-10.06,0-18.77-7.61-18.77-17.68S232.27,31.36,242.33,31.36Zm13.87,69.09H228.46v127H256.2Z" transform="translate(-62.27 -31.36)"/><path class="cls-1" d="M287.21,163.56c0-40.26,30.19-65.83,66.09-65.83,36.18,0,66.64,25.57,66.64,65.83S389.48,230.2,353.3,230.2C317.4,230.2,287.21,203.81,287.21,163.56Zm104.72,0c0-23.4-17.41-38.36-38.63-38.36-20.94,0-38.35,15-38.35,38.36C315,187.49,332.36,203,353.3,203,374.52,203,391.93,187.49,391.93,163.56Z" transform="translate(-62.27 -31.36)"/><path class="cls-1" d="M524.93,40.07h28.83v161h75.08v26.39H524.93Z" transform="translate(-62.27 -31.36)"/><path class="cls-1" d="M645.43,163.56c0-40.26,30.19-65.83,66.09-65.83,36.18,0,66.65,25.57,66.65,65.83S747.7,230.2,711.52,230.2C675.62,230.2,645.43,203.81,645.43,163.56Zm104.72,0c0-23.4-17.41-38.36-38.63-38.36-20.94,0-38.35,15-38.35,38.36,0,23.93,17.41,39.44,38.35,39.44C732.74,203,750.15,187.49,750.15,163.56Z" transform="translate(-62.27 -31.36)"/><path class="cls-1" d="M866,264.74c25.84,0,42.43-14.41,42.43-50.05v-6.52c-7.34,14.14-25.84,22-43,22-34.27,0-64.19-25.57-64.19-65.83,0-40.53,29.92-66.64,64.19-66.64,17.14,0,35.09,7.62,43,21.49V100.45h27.47V208.71c0,58.48-27.2,82.14-69.9,82.14a65.33,65.33,0,0,1-58.75-35.63c4.89-2.17,18.22-9.52,23.12-11.69C837.19,256.85,852.15,264.74,866,264.74Zm2.72-139.81c-21.22,0-38.63,16-38.63,39.17,0,23.94,17.41,39.17,38.63,39.17,19,0,39.17-14.42,39.17-39.17C907.91,138.8,889.68,124.93,868.74,124.93Z" transform="translate(-62.27 -31.36)"/><path class="cls-1" d="M989,31.36c10.33,0,18.49,7.62,18.49,17.68S999.29,66.72,989,66.72c-10.07,0-18.77-7.61-18.77-17.68S978.89,31.36,989,31.36Zm13.87,69.09H975.08v127h27.75Z" transform="translate(-62.27 -31.36)"/><path class="cls-1" d="M1101.56,97.73c20.13,0,38.35,7.89,50.32,22l-21.76,17.41c-6.8-7.89-17.41-12.24-28.56-12.24-21.21,0-40,15-40,38.63s18.77,39.71,40,39.71c11.15,0,21.76-4.62,28.56-12.51l22,17.13c-12,14.15-30.19,22.31-50.59,22.31-36.45,0-67.73-26.39-67.73-66.64S1065.11,97.73,1101.56,97.73Z" transform="translate(-62.27 -31.36)"/></svg>